<svg width="428" height="105" viewBox="0 0 428 105" fill="none" xmlns="http://www.w3.org/2000/svg">
<path d="M67.9503 3.02859C72.9563 1.26559 78.0663 0.023592 83.4153 0.000592017C102.864 -0.085408 116.379 9.20059 124.774 26.3306C126.413 29.6786 127.336 33.3746 128.667 37.1246C132.93 36.6096 137.375 37.0616 141.607 38.5436C153.931 42.8586 161.467 51.4936 163.848 64.3126C165.753 74.5836 163.454 83.8646 156.479 91.8806C147.767 101.903 131.396 104.13 120.981 96.6156C114.699 92.0836 112.056 84.5516 114.473 78.0676C117.035 71.1856 124.869 69.2386 129.617 74.2806C131.491 76.2686 131.432 78.6956 131.21 81.1216C135.569 82.4816 140.299 79.0116 140.516 74.3036C140.756 69.0256 138.506 64.9006 133.867 62.5146C124.254 57.5666 106.756 60.2416 102.325 75.4236C99.4963 85.1076 101.859 93.7966 108.603 101.293C109.485 102.273 110.431 103.191 111.49 104.284C110.911 104.338 110.454 104.415 110.001 104.415C85.2803 104.415 60.5633 104.451 35.8423 104.388C19.8745 104.347 5.34587 93.8276 1.29507 79.0886C-1.81433 67.7786 0.770066 57.4446 8.02987 48.2946C13.0583 41.9556 19.4219 37.6946 27.5688 36.4876C31.7237 35.8736 35.8513 36.2256 39.9383 37.1526C40.5853 37.2966 41.2513 37.3506 41.9883 37.4596C43.3243 29.5206 46.0893 22.3586 51.0273 16.2086C53.1413 13.5786 55.6533 11.2476 58.1283 8.93359C59.4953 7.65559 61.1653 6.6976 62.7003 5.5906C62.7003 5.5906 63.2343 5.2376 65.3113 4.2306C67.3843 3.2226 67.9503 3.03759 67.9503 3.03759V3.02859Z" fill="url(#paint0_linear_1015_31)"/>
<path d="M245.561 0.624643C243.841 5.37364 242.288 9.65664 240.731 13.9406C235.477 28.3956 230.19 42.8406 225.013 57.3186C224.402 59.0306 223.614 59.6636 221.785 59.5726C218.626 59.4146 215.449 59.6046 212.285 59.4686C211.611 59.4416 210.588 58.7826 210.366 58.1766C203.441 39.2216 196.593 20.2396 189.741 1.26164C189.718 1.19864 189.755 1.11664 189.813 0.619638C192.787 0.619638 195.824 0.619638 198.861 0.619638C201.646 0.619638 203.493 1.93664 204.401 4.56864C208.239 15.7026 212.109 26.8226 215.883 37.9786C216.671 40.3016 217.11 42.7366 218.061 45.1136C218.64 42.7236 219.038 40.2696 219.826 37.9476C223.202 28.0066 226.692 18.1066 230.141 8.19264C230.856 6.13664 231.507 4.05363 232.358 2.05663C232.616 1.45563 233.431 0.705631 234.015 0.687631C237.699 0.561631 241.388 0.624643 245.556 0.624643H245.561Z" fill="#E55200"/>
<path d="M427.544 59.0756H417.102V53.4906C416.903 53.4776 416.686 53.4146 416.654 53.4686C412.182 60.8066 401.754 61.3486 395.626 58.7686C390.213 56.4866 387.592 51.9686 387.927 45.7596C388.212 40.5366 391.67 36.1986 396.857 34.4316C402.112 32.6426 407.38 33.0316 412.676 34.1696C413.69 34.3866 414.708 34.5806 415.717 34.7796C416.459 30.4516 415.138 27.1616 412.173 25.7476C408.507 23.9986 405.307 24.7936 402.162 28.2096C401.926 28.4626 401.587 28.7886 401.288 28.7886C397.767 28.8286 394.25 28.8156 390.543 28.8156C390.801 24.3056 392.426 21.0616 395.608 18.6756C402.628 13.4076 415.785 13.7376 422.547 19.3306C426.209 22.3586 427.376 26.6146 427.476 31.0296C427.684 40.2786 427.539 49.5376 427.539 59.0806L427.544 59.0756ZM406.317 51.5526C411.345 51.1636 415.138 48.3446 415.622 44.2416C415.69 43.6856 415.301 42.6466 414.912 42.5296C411.046 41.3406 407.045 40.8166 403.203 42.2856C401.881 42.7916 400.623 44.2956 400.034 45.6466C399.387 47.1336 399.777 49.3156 401.306 50.1606C402.691 51.0466 404.121 51.5576 406.312 51.5576L406.317 51.5526Z" fill="#E55200"/>
<path d="M284.566 41.0746H253.178C252.793 44.2646 254.839 47.6166 258.08 49.3156C262.823 51.8056 268.227 50.9426 272.196 47.1376C272.581 46.7676 273.441 46.4286 273.83 46.6096C276.582 47.8927 279.271 49.3116 282.172 50.7887C278.393 56.0896 273.735 58.9446 268.019 59.8036C259.293 61.1137 251.458 59.1846 245.647 52.1036C238.663 43.5956 239.469 29.7236 247.199 21.6357C254.509 13.9857 267.367 12.7836 275.935 19.0966C281.588 23.2626 284.023 29.2036 284.553 36.0226C284.675 37.5856 284.571 39.1716 284.571 41.0746H284.566ZM272.617 32.5026C272.142 27.1886 267.969 24.0936 261.863 24.3516C257.672 24.5276 253.146 28.4086 253.472 32.5026H272.617Z" fill="#E55200"/>
<path d="M328.994 26.1226H321.404C321.404 22.9686 321.349 19.9866 321.476 17.0086C321.494 16.6376 322.472 16.0506 323.033 16.0096C324.902 15.8836 326.785 15.9606 329.003 15.9606C329.003 12.5446 329.107 9.25961 328.962 5.98761C328.881 4.15761 329.523 3.6026 331.284 3.6836C333.764 3.8006 336.258 3.76961 338.743 3.69261C340.286 3.64261 340.888 4.17161 340.839 5.76661C340.739 9.05561 340.807 12.3546 340.807 15.9426C343.767 15.9426 346.528 16.0186 349.284 15.9106C350.9 15.8476 351.642 16.2586 351.525 18.0296C351.389 20.1266 351.425 22.2406 351.511 24.3466C351.57 25.7336 351.045 26.2086 349.678 26.1726C346.827 26.0996 343.975 26.1496 340.798 26.1496C340.798 28.6346 340.798 30.9396 340.798 33.2436C340.789 36.7766 340.771 40.3146 340.771 43.8486C340.771 49.3526 343.699 51.6566 349.081 50.4136C349.796 50.2516 350.515 50.1336 351.398 49.9626V58.9226C346.84 60.3686 342.264 60.6256 337.698 59.1166C332.579 57.4266 329.22 53.0306 329.084 47.6166C328.931 41.4536 329.012 35.2816 328.994 29.1136C328.994 28.2276 328.994 27.3426 328.994 26.1136V26.1226Z" fill="#E55200"/>
<path d="M358.205 16.3896H369.665V23.9946C372.607 17.0896 378.473 15.8476 385.067 15.4266V27.0126C383.533 26.9406 382.107 26.7096 380.713 26.8316C374.15 27.4106 370.289 31.6716 370.154 38.6026C370.036 44.5446 370.113 50.4906 370.099 56.4376C370.099 57.2506 370.099 58.0636 370.099 59.0356H358.205V16.3896Z" fill="#E55200"/>
<path d="M290.328 16.3626H301.706V24.0216C304.734 17.3386 310.473 15.8656 317.077 15.4636V26.7826C314.746 26.9226 312.456 26.7956 310.288 27.2426C305.703 28.1916 302.516 32.3036 302.272 37.7256C301.991 43.9566 302.023 50.2066 301.923 56.4466C301.91 57.2596 301.923 58.0726 301.923 59.0396H290.328V16.3576V16.3626Z" fill="#E55200"/>
<path d="M228.706 81.1446C228.158 81.4836 227.701 81.7366 227.276 82.0346C225.352 83.3856 223.908 83.9096 221.944 81.5286C219.31 78.3386 215.435 78.3786 211.733 79.6806C208.452 80.8326 206.343 84.2936 206.248 88.0266C206.148 91.8756 207.144 95.2196 210.674 97.2706C213.928 99.1646 217.305 99.2006 220.491 97.1356C221.785 96.2946 222.799 95.0296 224.103 93.8056C225.47 94.8446 226.945 95.9696 228.407 97.0856C225.782 102.463 218.278 105.382 211.376 103.783C204.65 102.224 200.128 96.1956 200.115 88.7676C200.101 81.4516 204.736 75.3386 211.457 73.8066C218.744 72.1476 225.691 75.0356 228.706 81.1396V81.1446Z" fill="#E55200"/>
<path d="M308.79 103.769H303.874C303.797 103.127 303.725 102.495 303.648 101.853C303.453 101.885 303.263 101.853 303.177 101.935C300.335 104.573 297.049 105.048 293.55 103.665C289.717 102.147 287.843 98.8747 287.599 95.0617C287.422 92.3277 287.87 89.3227 288.902 86.7927C290.898 81.9077 298.072 79.8657 303.666 84.0947V73.0387H308.79V103.778V103.769ZM298.285 87.0687C295.039 87.0597 292.808 89.3997 292.781 92.8517C292.754 96.3947 295.103 99.0967 298.185 99.0607C301.267 99.0287 303.657 96.3677 303.729 92.8877C303.802 89.5307 301.503 87.0727 298.285 87.0637V87.0687Z" fill="#E55200"/>
<path d="M250.526 104.32C244.719 104.302 239.962 99.2636 239.939 93.0956C239.917 86.8516 244.687 81.9216 250.761 81.9036C256.835 81.8856 261.542 86.8516 261.429 93.1686C261.32 99.4896 256.577 104.338 250.526 104.32ZM255.477 96.1726C256.278 94.0496 256.224 91.6496 255.115 89.6666C254.301 88.2026 253.065 87.2626 251.535 87.0956C248.693 86.7836 246.412 88.4106 245.733 91.2296C244.95 94.4926 246.366 97.9356 248.887 98.8976C250.806 99.6296 252.888 99.0826 254.409 97.7186C254.921 97.2616 255.233 96.8056 255.473 96.1726H255.477Z" fill="#E55200"/>
<path d="M278.936 82.4276H284.086V103.715H279.375C279.325 102.743 279.28 101.794 279.248 101.157C277.406 102.133 275.609 103.525 273.581 104.072C269.259 105.238 264.955 102.662 264.543 98.2696C264.054 93.0826 264.43 87.8136 264.43 82.4636H269.626C269.626 86.4856 269.594 90.4436 269.639 94.4016C269.657 96.2496 270.314 97.9266 272.215 98.4776C274.088 99.0246 276.161 98.8976 277.32 97.1176C278.171 95.8116 278.764 94.1396 278.872 92.5896C279.103 89.3046 278.945 85.9976 278.945 82.4326L278.936 82.4276Z" fill="#E55200"/>
<path d="M231.494 72.9526H236.776V103.733H231.494V72.9526Z" fill="#E55200"/>
<defs>
<linearGradient id="paint0_linear_1015_31" x1="45.3593" y1="-0.116405" x2="120.506" y2="104.653" gradientUnits="userSpaceOnUse">
<stop stop-color="#FF8E10"/>
<stop offset="0.778846" stop-color="#FB5200"/>
</linearGradient>
</defs>
</svg>
