<svg viewBox="0 0 24 24" xmlns="http://www.w3.org/2000/svg">
  <defs>
    <mask id="eye-mask">
      <rect width="24" height="24" fill="white"/>
      <circle cx="8" cy="12" r="4" fill="black"/>
      <circle cx="16" cy="12" r="4" fill="black"/>
    </mask>
  </defs>
  <path fill="#ff6100" mask="url(#eye-mask)" d="M12 22.596c6.628 0 12-4.338 12-9.688 0-3.318-2.057-6.248-5.219-7.986-1.286-.715-2.297-1.357-3.139-1.89C14.058 2.025 13.08 1.404 12 1.404c-1.097 0-2.334.785-3.966 1.821a49.92 49.92 0 0 1-2.816 1.697C2.057 6.66 0 9.59 0 12.908c0 5.35 5.372 9.687 12 9.687v.001ZM10.599 4.715c.334-.759.503-1.58.498-2.409 0-.145.202-.187.23-.029.658 2.783-.902 4.162-2.057 4.624-.124.048-.199-.121-.103-.209a5.763 5.763 0 0 0 1.432-1.977Zm2.058-.102a5.82 5.82 0 0 0-.782-2.306v-.016c-.069-.123.086-.263.185-.172 1.962 2.111 1.307 4.067.556 5.051-.082.103-.23-.003-.189-.126a5.85 5.85 0 0 0 .23-2.431Zm1.776-.561a5.727 5.727 0 0 0-1.612-1.806v-.014c-.112-.085-.024-.274.114-.218 2.595 1.087 2.774 3.18 2.459 4.407a.116.116 0 0 1-.049.071.11.11 0 0 1-.153-.026.122.122 0 0 1-.022-.083 5.891 5.891 0 0 0-.737-2.331Zm-5.087.561c-.617.546-1.282.76-2.063 1-.117 0-.195-.078-.156-.181 1.752-.909 2.376-1.649 2.999-2.778 0 0 .155-.118.188.085 0 .304-.349 1.329-.968 1.874ZM12 18.5a2.5 2.5 0 0 1-2-1.5h4a2.5 2.5 0 0 1-2 1.5z"/>
</svg>
