<svg viewBox="0 0 24 24" xmlns="http://www.w3.org/2000/svg">
  <path fill="#ff6100" d="M12 0L2.3 5.6v12.8L12 24l9.7-5.6V5.6L12 0zm7.1 16.9l-7.1 4.1-7.1-4.1V7.1l7.1-4.1 7.1 4.1v9.8z"/>
  <path fill="#ff6100" d="M8.5 17.5c-1.8 0-2.8-1-2.8-2.5h1.2c0 .8.5 1.4 1.6 1.4 1 0 1.5-.5 1.5-1.1s-.4-.9-1.3-1.2l-.9-.3c-1.3-.4-1.9-1.1-1.9-2.2 0-1.4 1-2.4 2.6-2.4 1.6 0 2.5.9 2.5 2.2h-1.2c0-.7-.4-1.1-1.3-1.1-.9 0-1.4.4-1.4 1 0 .6.4.8 1.3 1.1l.8.3c1.4.4 2 1.1 2 2.3.1 1.5-1 2.5-2.7 2.5zm7.3 0c-1.7 0-2.8-1-2.8-2.6V8.9h1.3v5.9c0 1 .5 1.5 1.5 1.5s1.5-.5 1.5-1.5V8.9h1.3v6.1c0 1.6-1.1 2.5-2.8 2.5z"/>
</svg>
